<mxfile host="app.diagrams.net" modified="2023-09-30T13:47:16.291Z" agent="Mozilla/5.0 (Macintosh; Intel Mac OS X 10.15; rv:109.0) Gecko/20100101 Firefox/118.0" etag="eLvidPdFTVegK396ysLH" version="21.7.2" type="device">
  <diagram name="Page-1" id="MqNkPJ5JuF-cwX9RQ_ps">
    <mxGraphModel dx="990" dy="670" grid="1" gridSize="10" guides="1" tooltips="1" connect="1" arrows="1" fold="1" page="1" pageScale="1" pageWidth="827" pageHeight="1169" math="0" shadow="0">
      <root>
        <mxCell id="0" />
        <mxCell id="1" parent="0" />
        <mxCell id="WySMhe_hh8-ioj-uT7Xy-4" value="&lt;div&gt;MQTT (webSocket)&lt;br&gt;&lt;/div&gt;&lt;div&gt;topic: &quot;traffic&quot;&lt;br&gt;&lt;/div&gt;" style="edgeStyle=none;rounded=0;orthogonalLoop=1;jettySize=auto;html=1;entryX=0.96;entryY=0.38;entryDx=0;entryDy=0;entryPerimeter=0;exitX=0.005;exitY=0.995;exitDx=0;exitDy=0;exitPerimeter=0;endArrow=classic;endFill=1;startArrow=classic;startFill=1;" edge="1" parent="1" source="WySMhe_hh8-ioj-uT7Xy-6" target="WySMhe_hh8-ioj-uT7Xy-3">
          <mxGeometry relative="1" as="geometry">
            <mxPoint x="390" y="110" as="sourcePoint" />
          </mxGeometry>
        </mxCell>
        <mxCell id="WySMhe_hh8-ioj-uT7Xy-1" value="&lt;div&gt;lightCrossing&lt;br&gt;&lt;/div&gt;&lt;div&gt;localhost:3000&lt;/div&gt;" style="html=1;verticalLabelPosition=bottom;align=center;labelBackgroundColor=#ffffff;verticalAlign=top;strokeWidth=2;strokeColor=#0080F0;shadow=0;dashed=0;shape=mxgraph.ios7.icons.globe;" vertex="1" parent="1">
          <mxGeometry x="560" y="140" width="50" height="50" as="geometry" />
        </mxCell>
        <mxCell id="WySMhe_hh8-ioj-uT7Xy-2" value="&lt;div&gt;walkButton&lt;br&gt;&lt;/div&gt;&lt;div&gt;localhost:3001&lt;/div&gt;" style="html=1;verticalLabelPosition=bottom;align=center;labelBackgroundColor=#ffffff;verticalAlign=top;strokeWidth=2;strokeColor=#0080F0;shadow=0;dashed=0;shape=mxgraph.ios7.icons.globe;" vertex="1" parent="1">
          <mxGeometry x="640" y="330" width="50" height="50" as="geometry" />
        </mxCell>
        <mxCell id="WySMhe_hh8-ioj-uT7Xy-3" value="&lt;div&gt;signald (mqtt broker)&lt;/div&gt;&lt;div&gt;localhost:8888&lt;br&gt;&lt;/div&gt;" style="html=1;verticalLabelPosition=bottom;align=center;labelBackgroundColor=#ffffff;verticalAlign=top;strokeWidth=2;strokeColor=#0080F0;shadow=0;dashed=0;shape=mxgraph.ios7.icons.settings;" vertex="1" parent="1">
          <mxGeometry x="120" y="280" width="50" height="50" as="geometry" />
        </mxCell>
        <mxCell id="WySMhe_hh8-ioj-uT7Xy-7" style="edgeStyle=none;rounded=0;orthogonalLoop=1;jettySize=auto;html=1;entryX=0.16;entryY=0.04;entryDx=0;entryDy=0;entryPerimeter=0;endArrow=none;endFill=0;" edge="1" parent="1" source="WySMhe_hh8-ioj-uT7Xy-6" target="WySMhe_hh8-ioj-uT7Xy-1">
          <mxGeometry relative="1" as="geometry" />
        </mxCell>
        <mxCell id="WySMhe_hh8-ioj-uT7Xy-12" value="&lt;div&gt;topic: &quot;traffic&quot;&lt;/div&gt;&lt;div&gt;message: &quot;REQUEST_WALK&quot;&lt;br&gt;&lt;/div&gt;" style="edgeStyle=orthogonalEdgeStyle;rounded=0;orthogonalLoop=1;jettySize=auto;html=1;elbow=vertical;curved=1;startArrow=classic;startFill=1;dashed=1;dashPattern=12 12;endArrow=none;endFill=0;" edge="1" parent="1">
          <mxGeometry x="-0.5398" relative="1" as="geometry">
            <mxPoint x="410" y="520" as="targetPoint" />
            <mxPoint x="370" y="70" as="sourcePoint" />
            <Array as="points">
              <mxPoint x="50" y="70" />
              <mxPoint x="50" y="520" />
            </Array>
            <mxPoint as="offset" />
          </mxGeometry>
        </mxCell>
        <mxCell id="WySMhe_hh8-ioj-uT7Xy-6" value="&lt;div&gt;Traffic viz&lt;/div&gt;" style="html=1;whiteSpace=wrap;strokeColor=none;fillColor=#0079D6;labelPosition=center;verticalLabelPosition=middle;verticalAlign=top;align=center;fontSize=12;outlineConnect=0;spacingTop=-6;fontColor=#FFFFFF;sketch=0;shape=mxgraph.sitemap.user;" vertex="1" parent="1">
          <mxGeometry x="414" y="20" width="120" height="70" as="geometry" />
        </mxCell>
        <mxCell id="WySMhe_hh8-ioj-uT7Xy-8" value="&lt;div&gt;MQTT (webSocket)&lt;br&gt;&lt;/div&gt;&lt;div&gt;topic: &quot;traffic&quot;&lt;br&gt;&lt;/div&gt;" style="edgeStyle=none;rounded=0;orthogonalLoop=1;jettySize=auto;html=1;entryX=1.08;entryY=0.56;entryDx=0;entryDy=0;entryPerimeter=0;exitX=0;exitY=0;exitDx=0;exitDy=0;endArrow=classic;endFill=1;startArrow=classic;startFill=1;" edge="1" parent="1" source="WySMhe_hh8-ioj-uT7Xy-11" target="WySMhe_hh8-ioj-uT7Xy-3">
          <mxGeometry relative="1" as="geometry">
            <mxPoint x="440.5999999999999" y="500.3499999999999" as="sourcePoint" />
            <mxPoint x="180" y="479" as="targetPoint" />
          </mxGeometry>
        </mxCell>
        <mxCell id="WySMhe_hh8-ioj-uT7Xy-10" style="edgeStyle=none;rounded=0;orthogonalLoop=1;jettySize=auto;html=1;entryX=1;entryY=0;entryDx=0;entryDy=0;endArrow=none;endFill=0;exitX=-0.04;exitY=0.52;exitDx=0;exitDy=0;exitPerimeter=0;" edge="1" parent="1" source="WySMhe_hh8-ioj-uT7Xy-2" target="WySMhe_hh8-ioj-uT7Xy-11">
          <mxGeometry relative="1" as="geometry">
            <mxPoint x="460" y="300" as="sourcePoint" />
            <mxPoint x="559.4000000000001" y="500.3499999999999" as="targetPoint" />
          </mxGeometry>
        </mxCell>
        <mxCell id="WySMhe_hh8-ioj-uT7Xy-11" value="&lt;div&gt;walkButton&lt;/div&gt;" style="rounded=1;fillColor=#0057D8;strokeColor=none;html=1;whiteSpace=wrap;fontColor=#ffffff;align=center;verticalAlign=middle;fontStyle=0;fontSize=12;sketch=0;" vertex="1" parent="1">
          <mxGeometry x="460" y="500" width="86" height="33" as="geometry" />
        </mxCell>
      </root>
    </mxGraphModel>
  </diagram>
</mxfile>
